{
	"asset":{
		"generator":"Khronos glTF Blender I/O v3.6.27",
		"version":"2.0"
	},
	"scene":0,
	"scenes":[
		{
			"name":"Scene",
			"nodes":[
				0,
				1,
				2,
				3,
				4,
				5,
				6,
				7,
				10,
				13,
				16,
				19,
				22,
				23,
				24,
				25,
				29,
				33,
				37,
				40
			]
		}
	],
	"nodes":[
		{
			"camera":0,
			"name":"Camera",
			"rotation":[
				-0.2665669620037079,
				0.005839190911501646,
				0.0016149695729836822,
				0.963797390460968
			],
			"translation":[
				0.5247301459312439,
				16.141101837158203,
				27.99687957763672
			]
		},
		{
			"mesh":0,
			"name":"Circle",
			"translation":[
				-7.7953667640686035,
				0,
				0.016330815851688385
			]
		},
		{
			"mesh":1,
			"name":"Circle.001",
			"translation":[
				-8.659660339355469,
				0,
				1.5479838848114014
			]
		},
		{
			"mesh":2,
			"name":"Circle.002",
			"translation":[
				-7.7953667640686035,
				0,
				3.0636472702026367
			]
		},
		{
			"mesh":3,
			"name":"Circle.003",
			"translation":[
				-6.933099746704102,
				0,
				4.583712577819824
			]
		},
		{
			"mesh":4,
			"name":"Circle.004",
			"translation":[
				-6.904880046844482,
				0,
				-1.5151509046554565
			]
		},
		{
			"mesh":5,
			"name":"Sphere",
			"scale":[
				0.2804635763168335,
				1.0273131132125854,
				0.2804635763168335
			],
			"translation":[
				0,
				1.4525505304336548,
				0
			]
		},
		{
			"mesh":6,
			"name":"Cylinder",
			"scale":[
				0.06604783982038498,
				0.26124751567840576,
				0.06604783982038498
			],
			"translation":[
				0,
				0.33974483609199524,
				0
			]
		},
		{
			"mesh":5,
			"name":"Sphere",
			"scale":[
				0.2804635763168335,
				1.0273131132125854,
				0.2804635763168335
			],
			"translation":[
				0,
				1.4525505304336548,
				0
			]
		},
		{
			"mesh":6,
			"name":"Cylinder",
			"scale":[
				0.06604783982038498,
				0.26124751567840576,
				0.06604783982038498
			],
			"translation":[
				0,
				0.33974483609199524,
				0
			]
		},
		{
			"children":[
				8,
				9
			],
			"name":"Tree1",
			"translation":[
				0.3471933603286743,
				0,
				0.7066408395767212
			]
		},
		{
			"mesh":5,
			"name":"Sphere",
			"scale":[
				0.2804635763168335,
				1.0273131132125854,
				0.2804635763168335
			],
			"translation":[
				0,
				1.4525505304336548,
				0
			]
		},
		{
			"mesh":6,
			"name":"Cylinder",
			"scale":[
				0.06604783982038498,
				0.26124751567840576,
				0.06604783982038498
			],
			"translation":[
				0,
				0.33974483609199524,
				0
			]
		},
		{
			"children":[
				11,
				12
			],
			"name":"Tree1.001",
			"translation":[
				-4.260293960571289,
				0,
				1.155304193496704
			]
		},
		{
			"mesh":5,
			"name":"Sphere",
			"scale":[
				0.2804635763168335,
				1.0273131132125854,
				0.2804635763168335
			],
			"translation":[
				0,
				1.4525505304336548,
				0
			]
		},
		{
			"mesh":6,
			"name":"Cylinder",
			"scale":[
				0.06604783982038498,
				0.26124751567840576,
				0.06604783982038498
			],
			"translation":[
				0,
				0.33974483609199524,
				0
			]
		},
		{
			"children":[
				14,
				15
			],
			"name":"Tree1.002",
			"translation":[
				-3.0345962047576904,
				0,
				2.354037284851074
			]
		},
		{
			"mesh":5,
			"name":"Sphere",
			"scale":[
				0.2804635763168335,
				1.0273131132125854,
				0.2804635763168335
			],
			"translation":[
				0,
				1.4525505304336548,
				0
			]
		},
		{
			"mesh":6,
			"name":"Cylinder",
			"scale":[
				0.06604783982038498,
				0.26124751567840576,
				0.06604783982038498
			],
			"translation":[
				0,
				0.33974483609199524,
				0
			]
		},
		{
			"children":[
				17,
				18
			],
			"name":"Tree1.003",
			"translation":[
				2.1165497303009033,
				0,
				2.4041037559509277
			]
		},
		{
			"mesh":5,
			"name":"Sphere",
			"scale":[
				0.2804635763168335,
				1.0273131132125854,
				0.2804635763168335
			],
			"translation":[
				0,
				1.4525505304336548,
				0
			]
		},
		{
			"mesh":6,
			"name":"Cylinder",
			"scale":[
				0.06604783982038498,
				0.26124751567840576,
				0.06604783982038498
			],
			"translation":[
				0,
				0.33974483609199524,
				0
			]
		},
		{
			"children":[
				20,
				21
			],
			"name":"Tree1.004",
			"translation":[
				1.686697006225586,
				0,
				3.3124489784240723
			]
		},
		{
			"mesh":7,
			"name":"Sphere.001",
			"scale":[
				0.5758743286132812,
				0.45765089988708496,
				0.45765089988708496
			],
			"translation":[
				5.417259693145752,
				0.9193258881568909,
				-0.025640133768320084
			]
		},
		{
			"mesh":8,
			"name":"Sphere.002",
			"scale":[
				0.3865238130092621,
				0.30717286467552185,
				0.30717286467552185
			],
			"translation":[
				4.6183271408081055,
				0.8077391386032104,
				-0.025640133768320084
			]
		},
		{
			"mesh":9,
			"name":"Cylinder.001",
			"rotation":[
				0,
				0.3390064239501953,
				0,
				0.9407841563224792
			],
			"scale":[
				0.06604784727096558,
				0.26124751567840576,
				0.06604784727096558
			],
			"translation":[
				5.1226911544799805,
				0.33974483609199524,
				0.20451901853084564
			]
		},
		{
			"mesh":7,
			"name":"Sphere.001",
			"scale":[
				0.5758743286132812,
				0.45765089988708496,
				0.45765089988708496
			],
			"translation":[
				5.417259693145752,
				0.9193258881568909,
				-0.025640249252319336
			]
		},
		{
			"mesh":8,
			"name":"Sphere.002",
			"scale":[
				0.3865238130092621,
				0.30717286467552185,
				0.30717286467552185
			],
			"translation":[
				4.6183271408081055,
				0.8077391386032104,
				-0.025640249252319336
			]
		},
		{
			"mesh":9,
			"name":"Cylinder.001",
			"rotation":[
				0,
				0.3390064239501953,
				0,
				0.9407841563224792
			],
			"scale":[
				0.06604784727096558,
				0.26124751567840576,
				0.06604784727096558
			],
			"translation":[
				5.1226911544799805,
				0.33974483609199524,
				0.20451903343200684
			]
		},
		{
			"children":[
				26,
				27,
				28
			],
			"name":"Tree2",
			"translation":[
				0.13438279926776886,
				0,
				3.1903083324432373
			]
		},
		{
			"mesh":7,
			"name":"Sphere.001",
			"scale":[
				0.5758743286132812,
				0.45765089988708496,
				0.45765089988708496
			],
			"translation":[
				5.417259693145752,
				0.9193258881568909,
				-0.025640249252319336
			]
		},
		{
			"mesh":8,
			"name":"Sphere.002",
			"scale":[
				0.3865238130092621,
				0.30717286467552185,
				0.30717286467552185
			],
			"translation":[
				4.6183271408081055,
				0.8077391386032104,
				-0.025640249252319336
			]
		},
		{
			"mesh":9,
			"name":"Cylinder.001",
			"rotation":[
				0,
				0.3390064239501953,
				0,
				0.9407841563224792
			],
			"scale":[
				0.06604784727096558,
				0.26124751567840576,
				0.06604784727096558
			],
			"translation":[
				5.1226911544799805,
				0.33974483609199524,
				0.20451903343200684
			]
		},
		{
			"children":[
				30,
				31,
				32
			],
			"name":"Tree2.001",
			"translation":[
				-5.556190490722656,
				0,
				3.878469228744507
			]
		},
		{
			"mesh":7,
			"name":"Sphere.001",
			"scale":[
				0.5758743286132812,
				0.45765089988708496,
				0.45765089988708496
			],
			"translation":[
				5.417259693145752,
				0.9193258881568909,
				-0.025640133768320084
			]
		},
		{
			"mesh":8,
			"name":"Sphere.002",
			"scale":[
				0.3865238130092621,
				0.30717286467552185,
				0.30717286467552185
			],
			"translation":[
				4.6183271408081055,
				0.8077391386032104,
				-0.025640133768320084
			]
		},
		{
			"mesh":9,
			"name":"Cylinder.001",
			"rotation":[
				0,
				0.3390064239501953,
				0,
				0.9407841563224792
			],
			"scale":[
				0.06604784727096558,
				0.26124751567840576,
				0.06604784727096558
			],
			"translation":[
				5.1226911544799805,
				0.33974483609199524,
				0.20451901853084564
			]
		},
		{
			"children":[
				34,
				35,
				36
			],
			"name":"Tree2.002"
		},
		{
			"mesh":5,
			"name":"Sphere",
			"scale":[
				0.2804635763168335,
				1.0273131132125854,
				0.2804635763168335
			],
			"translation":[
				0,
				1.4525505304336548,
				0
			]
		},
		{
			"mesh":6,
			"name":"Cylinder",
			"scale":[
				0.06604783982038498,
				0.26124751567840576,
				0.06604783982038498
			],
			"translation":[
				0,
				0.33974483609199524,
				0
			]
		},
		{
			"children":[
				38,
				39
			],
			"name":"Tree1.005"
		}
	],
	"cameras":[
		{
			"name":"Camera",
			"perspective":{
				"aspectRatio":1.7777777777777777,
				"yfov":0.39959652046304894,
				"zfar":100,
				"znear":0.10000000149011612
			},
			"type":"perspective"
		}
	],
	"materials":[
		{
			"doubleSided":true,
			"name":"Material.001",
			"pbrMetallicRoughness":{
				"baseColorTexture":{
					"index":0
				},
				"metallicFactor":0,
				"roughnessFactor":0.5
			}
		},
		{
			"doubleSided":true,
			"name":"Material.002",
			"pbrMetallicRoughness":{
				"baseColorTexture":{
					"index":1
				},
				"metallicFactor":0,
				"roughnessFactor":0.5
			}
		},
		{
			"doubleSided":true,
			"name":"Material.003",
			"pbrMetallicRoughness":{
				"baseColorTexture":{
					"index":2
				},
				"metallicFactor":0,
				"roughnessFactor":0.5
			}
		}
	],
	"meshes":[
		{
			"name":"Circle",
			"primitives":[
				{
					"attributes":{
						"POSITION":0,
						"NORMAL":1,
						"TEXCOORD_0":2
					},
					"indices":3,
					"material":0
				}
			]
		},
		{
			"name":"Circle.001",
			"primitives":[
				{
					"attributes":{
						"POSITION":4,
						"NORMAL":5,
						"TEXCOORD_0":6
					},
					"indices":3,
					"material":0
				}
			]
		},
		{
			"name":"Circle.002",
			"primitives":[
				{
					"attributes":{
						"POSITION":7,
						"NORMAL":8,
						"TEXCOORD_0":9
					},
					"indices":3,
					"material":0
				}
			]
		},
		{
			"name":"Circle.003",
			"primitives":[
				{
					"attributes":{
						"POSITION":10,
						"NORMAL":11,
						"TEXCOORD_0":12
					},
					"indices":3,
					"material":0
				}
			]
		},
		{
			"name":"Circle.004",
			"primitives":[
				{
					"attributes":{
						"POSITION":13,
						"NORMAL":14,
						"TEXCOORD_0":15
					},
					"indices":3,
					"material":0
				}
			]
		},
		{
			"name":"Sphere",
			"primitives":[
				{
					"attributes":{
						"POSITION":16,
						"NORMAL":17,
						"TEXCOORD_0":18
					},
					"indices":19,
					"material":1
				}
			]
		},
		{
			"name":"Cylinder",
			"primitives":[
				{
					"attributes":{
						"POSITION":20,
						"NORMAL":21,
						"TEXCOORD_0":22
					},
					"indices":23,
					"material":2
				}
			]
		},
		{
			"name":"Sphere.001",
			"primitives":[
				{
					"attributes":{
						"POSITION":24,
						"NORMAL":25,
						"TEXCOORD_0":26
					},
					"indices":27,
					"material":1
				}
			]
		},
		{
			"name":"Sphere.002",
			"primitives":[
				{
					"attributes":{
						"POSITION":28,
						"NORMAL":29,
						"TEXCOORD_0":30
					},
					"indices":27,
					"material":1
				}
			]
		},
		{
			"name":"Cylinder.001",
			"primitives":[
				{
					"attributes":{
						"POSITION":31,
						"NORMAL":32,
						"TEXCOORD_0":33
					},
					"indices":34,
					"material":2
				}
			]
		}
	],
	"textures":[
		{
			"sampler":0,
			"source":0
		},
		{
			"sampler":0,
			"source":1
		},
		{
			"sampler":0,
			"source":2
		}
	],
	"images":[
		{
			"mimeType":"image/png",
			"name":"travaTexture",
			"uri":"travaTexture.png"
		},
		{
			"mimeType":"image/png",
			"name":"drevoTexture",
			"uri":"drevoTexture.png"
		},
		{
			"mimeType":"image/png",
			"name":"debloTexture",
			"uri":"debloTexture.png"
		}
	],
	"accessors":[
		{
			"bufferView":0,
			"componentType":5126,
			"count":60,
			"max":[
				0.8660253882408142,
				0.08308777958154678,
				1
			],
			"min":[
				-0.8660253882408142,
				0,
				-1
			],
			"type":"VEC3"
		},
		{
			"bufferView":1,
			"componentType":5126,
			"count":60,
			"type":"VEC3"
		},
		{
			"bufferView":2,
			"componentType":5126,
			"count":60,
			"type":"VEC2"
		},
		{
			"bufferView":3,
			"componentType":5123,
			"count":120,
			"type":"SCALAR"
		},
		{
			"bufferView":4,
			"componentType":5126,
			"count":60,
			"max":[
				0.8660253882408142,
				0.08308777958154678,
				1
			],
			"min":[
				-0.8660253882408142,
				0,
				-1
			],
			"type":"VEC3"
		},
		{
			"bufferView":5,
			"componentType":5126,
			"count":60,
			"type":"VEC3"
		},
		{
			"bufferView":6,
			"componentType":5126,
			"count":60,
			"type":"VEC2"
		},
		{
			"bufferView":7,
			"componentType":5126,
			"count":60,
			"max":[
				0.8660253882408142,
				0.08308777958154678,
				1
			],
			"min":[
				-0.8660253882408142,
				0,
				-1
			],
			"type":"VEC3"
		},
		{
			"bufferView":8,
			"componentType":5126,
			"count":60,
			"type":"VEC3"
		},
		{
			"bufferView":9,
			"componentType":5126,
			"count":60,
			"type":"VEC2"
		},
		{
			"bufferView":10,
			"componentType":5126,
			"count":60,
			"max":[
				0.8660253882408142,
				0.08308777958154678,
				1
			],
			"min":[
				-0.8660253882408142,
				0,
				-1
			],
			"type":"VEC3"
		},
		{
			"bufferView":11,
			"componentType":5126,
			"count":60,
			"type":"VEC3"
		},
		{
			"bufferView":12,
			"componentType":5126,
			"count":60,
			"type":"VEC2"
		},
		{
			"bufferView":13,
			"componentType":5126,
			"count":60,
			"max":[
				0.8660253882408142,
				0.08308777958154678,
				1
			],
			"min":[
				-0.8660253882408142,
				0,
				-1
			],
			"type":"VEC3"
		},
		{
			"bufferView":14,
			"componentType":5126,
			"count":60,
			"type":"VEC3"
		},
		{
			"bufferView":15,
			"componentType":5126,
			"count":60,
			"type":"VEC2"
		},
		{
			"bufferView":16,
			"componentType":5126,
			"count":559,
			"max":[
				0.9999997019767761,
				1,
				0.9999993443489075
			],
			"min":[
				-0.9999990463256836,
				-1,
				-1
			],
			"type":"VEC3"
		},
		{
			"bufferView":17,
			"componentType":5126,
			"count":559,
			"type":"VEC3"
		},
		{
			"bufferView":18,
			"componentType":5126,
			"count":559,
			"type":"VEC2"
		},
		{
			"bufferView":19,
			"componentType":5123,
			"count":2880,
			"type":"SCALAR"
		},
		{
			"bufferView":20,
			"componentType":5126,
			"count":48,
			"max":[
				1,
				1,
				1
			],
			"min":[
				-1,
				-1,
				-1
			],
			"type":"VEC3"
		},
		{
			"bufferView":21,
			"componentType":5126,
			"count":48,
			"type":"VEC3"
		},
		{
			"bufferView":22,
			"componentType":5126,
			"count":48,
			"type":"VEC2"
		},
		{
			"bufferView":23,
			"componentType":5123,
			"count":84,
			"type":"SCALAR"
		},
		{
			"bufferView":24,
			"componentType":5126,
			"count":559,
			"max":[
				0.9999997019767761,
				1,
				0.9999993443489075
			],
			"min":[
				-0.9999990463256836,
				-1,
				-1
			],
			"type":"VEC3"
		},
		{
			"bufferView":25,
			"componentType":5126,
			"count":559,
			"type":"VEC3"
		},
		{
			"bufferView":26,
			"componentType":5126,
			"count":559,
			"type":"VEC2"
		},
		{
			"bufferView":27,
			"componentType":5123,
			"count":2880,
			"type":"SCALAR"
		},
		{
			"bufferView":28,
			"componentType":5126,
			"count":559,
			"max":[
				0.9999997019767761,
				1,
				0.9999993443489075
			],
			"min":[
				-0.9999990463256836,
				-1,
				-1
			],
			"type":"VEC3"
		},
		{
			"bufferView":29,
			"componentType":5126,
			"count":559,
			"type":"VEC3"
		},
		{
			"bufferView":30,
			"componentType":5126,
			"count":559,
			"type":"VEC2"
		},
		{
			"bufferView":31,
			"componentType":5126,
			"count":292,
			"max":[
				4.4075703620910645,
				1.3288609981536865,
				1
			],
			"min":[
				-2.011168956756592,
				-1,
				-7.430883407592773
			],
			"type":"VEC3"
		},
		{
			"bufferView":32,
			"componentType":5126,
			"count":292,
			"type":"VEC3"
		},
		{
			"bufferView":33,
			"componentType":5126,
			"count":292,
			"type":"VEC2"
		},
		{
			"bufferView":34,
			"componentType":5123,
			"count":468,
			"type":"SCALAR"
		}
	],
	"bufferViews":[
		{
			"buffer":0,
			"byteLength":720,
			"byteOffset":0,
			"target":34962
		},
		{
			"buffer":0,
			"byteLength":720,
			"byteOffset":720,
			"target":34962
		},
		{
			"buffer":0,
			"byteLength":480,
			"byteOffset":1440,
			"target":34962
		},
		{
			"buffer":0,
			"byteLength":240,
			"byteOffset":1920,
			"target":34963
		},
		{
			"buffer":0,
			"byteLength":720,
			"byteOffset":2160,
			"target":34962
		},
		{
			"buffer":0,
			"byteLength":720,
			"byteOffset":2880,
			"target":34962
		},
		{
			"buffer":0,
			"byteLength":480,
			"byteOffset":3600,
			"target":34962
		},
		{
			"buffer":0,
			"byteLength":720,
			"byteOffset":4080,
			"target":34962
		},
		{
			"buffer":0,
			"byteLength":720,
			"byteOffset":4800,
			"target":34962
		},
		{
			"buffer":0,
			"byteLength":480,
			"byteOffset":5520,
			"target":34962
		},
		{
			"buffer":0,
			"byteLength":720,
			"byteOffset":6000,
			"target":34962
		},
		{
			"buffer":0,
			"byteLength":720,
			"byteOffset":6720,
			"target":34962
		},
		{
			"buffer":0,
			"byteLength":480,
			"byteOffset":7440,
			"target":34962
		},
		{
			"buffer":0,
			"byteLength":720,
			"byteOffset":7920,
			"target":34962
		},
		{
			"buffer":0,
			"byteLength":720,
			"byteOffset":8640,
			"target":34962
		},
		{
			"buffer":0,
			"byteLength":480,
			"byteOffset":9360,
			"target":34962
		},
		{
			"buffer":0,
			"byteLength":6708,
			"byteOffset":9840,
			"target":34962
		},
		{
			"buffer":0,
			"byteLength":6708,
			"byteOffset":16548,
			"target":34962
		},
		{
			"buffer":0,
			"byteLength":4472,
			"byteOffset":23256,
			"target":34962
		},
		{
			"buffer":0,
			"byteLength":5760,
			"byteOffset":27728,
			"target":34963
		},
		{
			"buffer":0,
			"byteLength":576,
			"byteOffset":33488,
			"target":34962
		},
		{
			"buffer":0,
			"byteLength":576,
			"byteOffset":34064,
			"target":34962
		},
		{
			"buffer":0,
			"byteLength":384,
			"byteOffset":34640,
			"target":34962
		},
		{
			"buffer":0,
			"byteLength":168,
			"byteOffset":35024,
			"target":34963
		},
		{
			"buffer":0,
			"byteLength":6708,
			"byteOffset":35192,
			"target":34962
		},
		{
			"buffer":0,
			"byteLength":6708,
			"byteOffset":41900,
			"target":34962
		},
		{
			"buffer":0,
			"byteLength":4472,
			"byteOffset":48608,
			"target":34962
		},
		{
			"buffer":0,
			"byteLength":5760,
			"byteOffset":53080,
			"target":34963
		},
		{
			"buffer":0,
			"byteLength":6708,
			"byteOffset":58840,
			"target":34962
		},
		{
			"buffer":0,
			"byteLength":6708,
			"byteOffset":65548,
			"target":34962
		},
		{
			"buffer":0,
			"byteLength":4472,
			"byteOffset":72256,
			"target":34962
		},
		{
			"buffer":0,
			"byteLength":3504,
			"byteOffset":76728,
			"target":34962
		},
		{
			"buffer":0,
			"byteLength":3504,
			"byteOffset":80232,
			"target":34962
		},
		{
			"buffer":0,
			"byteLength":2336,
			"byteOffset":83736,
			"target":34962
		},
		{
			"buffer":0,
			"byteLength":936,
			"byteOffset":86072,
			"target":34963
		}
	],
	"samplers":[
		{
			"magFilter":9729,
			"minFilter":9987
		}
	],
	"buffers":[
		{
			"byteLength":87008,
			"uri":"scena.bin"
		}
	]
}
