{
	"asset":{
		"generator":"Khronos glTF Blender I/O v3.6.27",
		"version":"2.0"
	},
	"scene":0,
	"scenes":[
		{
			"name":"Scene",
			"nodes":[
				3,
				4,
				5,
				6,
				7,
				8,
				9,
				10,
				11,
				14,
				17,
				20,
				23,
				26,
				27,
				28,
				29,
				33,
				37,
				41,
				44
			]
		}
	],
	"nodes":[
		{
			"mesh":0,
			"name":"Cube"
		},
		{
			"mesh":1,
			"name":"Roundcube.001",
			"scale":[
				0.13860704004764557,
				0.21048298478126526,
				0.13860704004764557
			],
			"translation":[
				0,
				0,
				1.4072554111480713
			]
		},
		{
			"mesh":2,
			"name":"Plane",
			"rotation":[
				0.7071068286895752,
				0,
				0,
				0.7071068286895752
			],
			"translation":[
				0,
				0,
				0.9640176892280579
			]
		},
		{
			"children":[
				0,
				1,
				2
			],
			"name":"Oblacek",
			"scale":[
				0.4244600832462311,
				0.4244600832462311,
				0.4244600832462311
			],
			"translation":[
				-1.0303006172180176,
				0.475463330745697,
				0.34686487913131714
			]
		},
		{
			"camera":0,
			"name":"Camera",
			"rotation":[
				-0.2665669620037079,
				0.005839190911501646,
				0.0016149695729836822,
				0.963797390460968
			],
			"translation":[
				0.5247301459312439,
				16.141101837158203,
				27.99687957763672
			]
		},
		{
			"mesh":3,
			"name":"Circle",
			"translation":[
				-7.7953667640686035,
				0,
				0.016330815851688385
			]
		},
		{
			"mesh":4,
			"name":"Circle.001",
			"translation":[
				-8.659660339355469,
				0,
				1.5479838848114014
			]
		},
		{
			"mesh":5,
			"name":"Circle.002",
			"translation":[
				-7.7953667640686035,
				0,
				3.0636472702026367
			]
		},
		{
			"mesh":6,
			"name":"Circle.003",
			"translation":[
				-6.933099746704102,
				0,
				4.583712577819824
			]
		},
		{
			"mesh":7,
			"name":"Circle.004",
			"translation":[
				-6.904880046844482,
				0,
				-1.5151509046554565
			]
		},
		{
			"mesh":8,
			"name":"Sphere",
			"scale":[
				0.2804635763168335,
				1.0273131132125854,
				0.2804635763168335
			],
			"translation":[
				0,
				1.4525505304336548,
				0
			]
		},
		{
			"mesh":9,
			"name":"Cylinder",
			"scale":[
				0.06604783982038498,
				0.26124751567840576,
				0.06604783982038498
			],
			"translation":[
				0,
				0.33974483609199524,
				0
			]
		},
		{
			"mesh":8,
			"name":"Sphere",
			"scale":[
				0.2804635763168335,
				1.0273131132125854,
				0.2804635763168335
			],
			"translation":[
				0,
				1.4525505304336548,
				0
			]
		},
		{
			"mesh":9,
			"name":"Cylinder",
			"scale":[
				0.06604783982038498,
				0.26124751567840576,
				0.06604783982038498
			],
			"translation":[
				0,
				0.33974483609199524,
				0
			]
		},
		{
			"children":[
				12,
				13
			],
			"name":"Tree1",
			"translation":[
				0.3471933603286743,
				0,
				0.7066408395767212
			]
		},
		{
			"mesh":8,
			"name":"Sphere",
			"scale":[
				0.2804635763168335,
				1.0273131132125854,
				0.2804635763168335
			],
			"translation":[
				0,
				1.4525505304336548,
				0
			]
		},
		{
			"mesh":9,
			"name":"Cylinder",
			"scale":[
				0.06604783982038498,
				0.26124751567840576,
				0.06604783982038498
			],
			"translation":[
				0,
				0.33974483609199524,
				0
			]
		},
		{
			"children":[
				15,
				16
			],
			"name":"Tree1.001",
			"translation":[
				-4.260293960571289,
				0,
				1.155304193496704
			]
		},
		{
			"mesh":8,
			"name":"Sphere",
			"scale":[
				0.2804635763168335,
				1.0273131132125854,
				0.2804635763168335
			],
			"translation":[
				0,
				1.4525505304336548,
				0
			]
		},
		{
			"mesh":9,
			"name":"Cylinder",
			"scale":[
				0.06604783982038498,
				0.26124751567840576,
				0.06604783982038498
			],
			"translation":[
				0,
				0.33974483609199524,
				0
			]
		},
		{
			"children":[
				18,
				19
			],
			"name":"Tree1.002",
			"translation":[
				-3.0345962047576904,
				0,
				2.354037284851074
			]
		},
		{
			"mesh":8,
			"name":"Sphere",
			"scale":[
				0.2804635763168335,
				1.0273131132125854,
				0.2804635763168335
			],
			"translation":[
				0,
				1.4525505304336548,
				0
			]
		},
		{
			"mesh":9,
			"name":"Cylinder",
			"scale":[
				0.06604783982038498,
				0.26124751567840576,
				0.06604783982038498
			],
			"translation":[
				0,
				0.33974483609199524,
				0
			]
		},
		{
			"children":[
				21,
				22
			],
			"name":"Tree1.003",
			"translation":[
				2.1165497303009033,
				0,
				2.4041037559509277
			]
		},
		{
			"mesh":8,
			"name":"Sphere",
			"scale":[
				0.2804635763168335,
				1.0273131132125854,
				0.2804635763168335
			],
			"translation":[
				0,
				1.4525505304336548,
				0
			]
		},
		{
			"mesh":9,
			"name":"Cylinder",
			"scale":[
				0.06604783982038498,
				0.26124751567840576,
				0.06604783982038498
			],
			"translation":[
				0,
				0.33974483609199524,
				0
			]
		},
		{
			"children":[
				24,
				25
			],
			"name":"Tree1.004",
			"translation":[
				1.686697006225586,
				0,
				3.3124489784240723
			]
		},
		{
			"mesh":10,
			"name":"Sphere.001",
			"scale":[
				0.5758743286132812,
				0.45765089988708496,
				0.45765089988708496
			],
			"translation":[
				5.417259693145752,
				0.9193258881568909,
				-0.025640133768320084
			]
		},
		{
			"mesh":11,
			"name":"Sphere.002",
			"scale":[
				0.3865238130092621,
				0.30717286467552185,
				0.30717286467552185
			],
			"translation":[
				4.6183271408081055,
				0.8077391386032104,
				-0.025640133768320084
			]
		},
		{
			"mesh":12,
			"name":"Cylinder.001",
			"rotation":[
				0,
				0.3390064239501953,
				0,
				0.9407841563224792
			],
			"scale":[
				0.06604784727096558,
				0.26124751567840576,
				0.06604784727096558
			],
			"translation":[
				5.1226911544799805,
				0.33974483609199524,
				0.20451901853084564
			]
		},
		{
			"mesh":10,
			"name":"Sphere.001",
			"scale":[
				0.5758743286132812,
				0.45765089988708496,
				0.45765089988708496
			],
			"translation":[
				5.417259693145752,
				0.9193258881568909,
				-0.025640249252319336
			]
		},
		{
			"mesh":11,
			"name":"Sphere.002",
			"scale":[
				0.3865238130092621,
				0.30717286467552185,
				0.30717286467552185
			],
			"translation":[
				4.6183271408081055,
				0.8077391386032104,
				-0.025640249252319336
			]
		},
		{
			"mesh":12,
			"name":"Cylinder.001",
			"rotation":[
				0,
				0.3390064239501953,
				0,
				0.9407841563224792
			],
			"scale":[
				0.06604784727096558,
				0.26124751567840576,
				0.06604784727096558
			],
			"translation":[
				5.1226911544799805,
				0.33974483609199524,
				0.20451903343200684
			]
		},
		{
			"children":[
				30,
				31,
				32
			],
			"name":"Tree2",
			"translation":[
				0.13438279926776886,
				0,
				3.1903083324432373
			]
		},
		{
			"mesh":10,
			"name":"Sphere.001",
			"scale":[
				0.5758743286132812,
				0.45765089988708496,
				0.45765089988708496
			],
			"translation":[
				5.417259693145752,
				0.9193258881568909,
				-0.025640249252319336
			]
		},
		{
			"mesh":11,
			"name":"Sphere.002",
			"scale":[
				0.3865238130092621,
				0.30717286467552185,
				0.30717286467552185
			],
			"translation":[
				4.6183271408081055,
				0.8077391386032104,
				-0.025640249252319336
			]
		},
		{
			"mesh":12,
			"name":"Cylinder.001",
			"rotation":[
				0,
				0.3390064239501953,
				0,
				0.9407841563224792
			],
			"scale":[
				0.06604784727096558,
				0.26124751567840576,
				0.06604784727096558
			],
			"translation":[
				5.1226911544799805,
				0.33974483609199524,
				0.20451903343200684
			]
		},
		{
			"children":[
				34,
				35,
				36
			],
			"name":"Tree2.001",
			"translation":[
				-5.556190490722656,
				0,
				3.878469228744507
			]
		},
		{
			"mesh":10,
			"name":"Sphere.001",
			"scale":[
				0.5758743286132812,
				0.45765089988708496,
				0.45765089988708496
			],
			"translation":[
				5.417259693145752,
				0.9193258881568909,
				-0.025640133768320084
			]
		},
		{
			"mesh":11,
			"name":"Sphere.002",
			"scale":[
				0.3865238130092621,
				0.30717286467552185,
				0.30717286467552185
			],
			"translation":[
				4.6183271408081055,
				0.8077391386032104,
				-0.025640133768320084
			]
		},
		{
			"mesh":12,
			"name":"Cylinder.001",
			"rotation":[
				0,
				0.3390064239501953,
				0,
				0.9407841563224792
			],
			"scale":[
				0.06604784727096558,
				0.26124751567840576,
				0.06604784727096558
			],
			"translation":[
				5.1226911544799805,
				0.33974483609199524,
				0.20451901853084564
			]
		},
		{
			"children":[
				38,
				39,
				40
			],
			"name":"Tree2.002"
		},
		{
			"mesh":8,
			"name":"Sphere",
			"scale":[
				0.2804635763168335,
				1.0273131132125854,
				0.2804635763168335
			],
			"translation":[
				0,
				1.4525505304336548,
				0
			]
		},
		{
			"mesh":9,
			"name":"Cylinder",
			"scale":[
				0.06604783982038498,
				0.26124751567840576,
				0.06604783982038498
			],
			"translation":[
				0,
				0.33974483609199524,
				0
			]
		},
		{
			"children":[
				42,
				43
			],
			"name":"Tree1.005"
		}
	],
	"cameras":[
		{
			"name":"Camera",
			"perspective":{
				"aspectRatio":1.7777777777777777,
				"yfov":0.39959652046304894,
				"zfar":100,
				"znear":0.10000000149011612
			},
			"type":"perspective"
		}
	],
	"materials":[
		{
			"doubleSided":true,
			"name":"Material.004",
			"pbrMetallicRoughness":{
				"baseColorFactor":[
					0.20921172201633453,
					0.2337930053472519,
					0.3172934651374817,
					1
				],
				"metallicFactor":0,
				"roughnessFactor":0.5
			}
		},
		{
			"doubleSided":true,
			"name":"Material.005",
			"pbrMetallicRoughness":{
				"baseColorFactor":[
					0,
					0,
					0,
					1
				],
				"metallicFactor":0,
				"roughnessFactor":0.5
			}
		},
		{
			"doubleSided":true,
			"name":"Material.006",
			"pbrMetallicRoughness":{
				"baseColorFactor":[
					0.242275670170784,
					0.013169214129447937,
					0.014697203412652016,
					1
				],
				"metallicFactor":0,
				"roughnessFactor":0.5
			}
		},
		{
			"doubleSided":true,
			"name":"Material.001",
			"pbrMetallicRoughness":{
				"baseColorFactor":[
					0.028443673625588417,
					0.4262135326862335,
					0.020922211930155754,
					1
				],
				"metallicFactor":0,
				"roughnessFactor":0.5
			}
		},
		{
			"doubleSided":true,
			"name":"Material.002",
			"pbrMetallicRoughness":{
				"baseColorFactor":[
					0.17144057154655457,
					0.5840781927108765,
					0.2704979479312897,
					1
				],
				"metallicFactor":0,
				"roughnessFactor":0.5
			}
		},
		{
			"doubleSided":true,
			"name":"Material.003",
			"pbrMetallicRoughness":{
				"baseColorFactor":[
					0.16146478056907654,
					0.09400492161512375,
					0.012712499126791954,
					1
				],
				"metallicFactor":0,
				"roughnessFactor":0.5
			}
		}
	],
	"meshes":[
		{
			"name":"Cube.001",
			"primitives":[
				{
					"attributes":{
						"POSITION":0,
						"NORMAL":1,
						"TEXCOORD_0":2
					},
					"indices":3,
					"material":0
				}
			]
		},
		{
			"name":"Roundcube.001",
			"primitives":[
				{
					"attributes":{
						"POSITION":4,
						"NORMAL":5
					},
					"indices":6,
					"material":1
				}
			]
		},
		{
			"name":"Plane",
			"primitives":[
				{
					"attributes":{
						"POSITION":7,
						"NORMAL":8,
						"TEXCOORD_0":9
					},
					"indices":10,
					"material":2
				}
			]
		},
		{
			"name":"Circle",
			"primitives":[
				{
					"attributes":{
						"POSITION":11,
						"NORMAL":12,
						"TEXCOORD_0":13
					},
					"indices":14,
					"material":3
				}
			]
		},
		{
			"name":"Circle.001",
			"primitives":[
				{
					"attributes":{
						"POSITION":15,
						"NORMAL":16,
						"TEXCOORD_0":17
					},
					"indices":14,
					"material":3
				}
			]
		},
		{
			"name":"Circle.002",
			"primitives":[
				{
					"attributes":{
						"POSITION":18,
						"NORMAL":19,
						"TEXCOORD_0":20
					},
					"indices":14,
					"material":3
				}
			]
		},
		{
			"name":"Circle.003",
			"primitives":[
				{
					"attributes":{
						"POSITION":21,
						"NORMAL":22,
						"TEXCOORD_0":23
					},
					"indices":14,
					"material":3
				}
			]
		},
		{
			"name":"Circle.004",
			"primitives":[
				{
					"attributes":{
						"POSITION":24,
						"NORMAL":25,
						"TEXCOORD_0":26
					},
					"indices":14,
					"material":3
				}
			]
		},
		{
			"name":"Sphere",
			"primitives":[
				{
					"attributes":{
						"POSITION":27,
						"NORMAL":28,
						"TEXCOORD_0":29
					},
					"indices":30,
					"material":4
				}
			]
		},
		{
			"name":"Cylinder",
			"primitives":[
				{
					"attributes":{
						"POSITION":31,
						"NORMAL":32,
						"TEXCOORD_0":33
					},
					"indices":34,
					"material":5
				}
			]
		},
		{
			"name":"Sphere.001",
			"primitives":[
				{
					"attributes":{
						"POSITION":35,
						"NORMAL":36,
						"TEXCOORD_0":37
					},
					"indices":38,
					"material":4
				}
			]
		},
		{
			"name":"Sphere.002",
			"primitives":[
				{
					"attributes":{
						"POSITION":39,
						"NORMAL":40,
						"TEXCOORD_0":41
					},
					"indices":38,
					"material":4
				}
			]
		},
		{
			"name":"Cylinder.001",
			"primitives":[
				{
					"attributes":{
						"POSITION":42,
						"NORMAL":43,
						"TEXCOORD_0":44
					},
					"indices":45,
					"material":5
				}
			]
		}
	],
	"accessors":[
		{
			"bufferView":0,
			"componentType":5126,
			"count":245,
			"max":[
				1.4880120754241943,
				1.2214466333389282,
				1
			],
			"min":[
				-1.4880120754241943,
				-1.038069725036621,
				-0.43919265270233154
			],
			"type":"VEC3"
		},
		{
			"bufferView":1,
			"componentType":5126,
			"count":245,
			"type":"VEC3"
		},
		{
			"bufferView":2,
			"componentType":5126,
			"count":245,
			"type":"VEC2"
		},
		{
			"bufferView":3,
			"componentType":5123,
			"count":1152,
			"type":"SCALAR"
		},
		{
			"bufferView":4,
			"componentType":5126,
			"count":304,
			"max":[
				4.640311241149902,
				1.1037944555282593,
				-2.050387382507324
			],
			"min":[
				-4.640311241149902,
				-0.413396954536438,
				-4.050387382507324
			],
			"type":"VEC3"
		},
		{
			"bufferView":5,
			"componentType":5126,
			"count":304,
			"type":"VEC3"
		},
		{
			"bufferView":6,
			"componentType":5123,
			"count":1800,
			"type":"SCALAR"
		},
		{
			"bufferView":7,
			"componentType":5126,
			"count":60,
			"max":[
				0.33196982741355896,
				0.043586887419223785,
				0.5279121994972229
			],
			"min":[
				-0.33196982741355896,
				-0.004911170806735754,
				0.3433496356010437
			],
			"type":"VEC3"
		},
		{
			"bufferView":8,
			"componentType":5126,
			"count":60,
			"type":"VEC3"
		},
		{
			"bufferView":9,
			"componentType":5126,
			"count":60,
			"type":"VEC2"
		},
		{
			"bufferView":10,
			"componentType":5123,
			"count":108,
			"type":"SCALAR"
		},
		{
			"bufferView":11,
			"componentType":5126,
			"count":60,
			"max":[
				0.8660253882408142,
				0.08308777958154678,
				1
			],
			"min":[
				-0.8660253882408142,
				0,
				-1
			],
			"type":"VEC3"
		},
		{
			"bufferView":12,
			"componentType":5126,
			"count":60,
			"type":"VEC3"
		},
		{
			"bufferView":13,
			"componentType":5126,
			"count":60,
			"type":"VEC2"
		},
		{
			"bufferView":14,
			"componentType":5123,
			"count":120,
			"type":"SCALAR"
		},
		{
			"bufferView":15,
			"componentType":5126,
			"count":60,
			"max":[
				0.8660253882408142,
				0.08308777958154678,
				1
			],
			"min":[
				-0.8660253882408142,
				0,
				-1
			],
			"type":"VEC3"
		},
		{
			"bufferView":16,
			"componentType":5126,
			"count":60,
			"type":"VEC3"
		},
		{
			"bufferView":17,
			"componentType":5126,
			"count":60,
			"type":"VEC2"
		},
		{
			"bufferView":18,
			"componentType":5126,
			"count":60,
			"max":[
				0.8660253882408142,
				0.08308777958154678,
				1
			],
			"min":[
				-0.8660253882408142,
				0,
				-1
			],
			"type":"VEC3"
		},
		{
			"bufferView":19,
			"componentType":5126,
			"count":60,
			"type":"VEC3"
		},
		{
			"bufferView":20,
			"componentType":5126,
			"count":60,
			"type":"VEC2"
		},
		{
			"bufferView":21,
			"componentType":5126,
			"count":60,
			"max":[
				0.8660253882408142,
				0.08308777958154678,
				1
			],
			"min":[
				-0.8660253882408142,
				0,
				-1
			],
			"type":"VEC3"
		},
		{
			"bufferView":22,
			"componentType":5126,
			"count":60,
			"type":"VEC3"
		},
		{
			"bufferView":23,
			"componentType":5126,
			"count":60,
			"type":"VEC2"
		},
		{
			"bufferView":24,
			"componentType":5126,
			"count":60,
			"max":[
				0.8660253882408142,
				0.08308777958154678,
				1
			],
			"min":[
				-0.8660253882408142,
				0,
				-1
			],
			"type":"VEC3"
		},
		{
			"bufferView":25,
			"componentType":5126,
			"count":60,
			"type":"VEC3"
		},
		{
			"bufferView":26,
			"componentType":5126,
			"count":60,
			"type":"VEC2"
		},
		{
			"bufferView":27,
			"componentType":5126,
			"count":559,
			"max":[
				0.9999997019767761,
				1,
				0.9999993443489075
			],
			"min":[
				-0.9999990463256836,
				-1,
				-1
			],
			"type":"VEC3"
		},
		{
			"bufferView":28,
			"componentType":5126,
			"count":559,
			"type":"VEC3"
		},
		{
			"bufferView":29,
			"componentType":5126,
			"count":559,
			"type":"VEC2"
		},
		{
			"bufferView":30,
			"componentType":5123,
			"count":2880,
			"type":"SCALAR"
		},
		{
			"bufferView":31,
			"componentType":5126,
			"count":48,
			"max":[
				1,
				1,
				1
			],
			"min":[
				-1,
				-1,
				-1
			],
			"type":"VEC3"
		},
		{
			"bufferView":32,
			"componentType":5126,
			"count":48,
			"type":"VEC3"
		},
		{
			"bufferView":33,
			"componentType":5126,
			"count":48,
			"type":"VEC2"
		},
		{
			"bufferView":34,
			"componentType":5123,
			"count":84,
			"type":"SCALAR"
		},
		{
			"bufferView":35,
			"componentType":5126,
			"count":559,
			"max":[
				0.9999997019767761,
				1,
				0.9999993443489075
			],
			"min":[
				-0.9999990463256836,
				-1,
				-1
			],
			"type":"VEC3"
		},
		{
			"bufferView":36,
			"componentType":5126,
			"count":559,
			"type":"VEC3"
		},
		{
			"bufferView":37,
			"componentType":5126,
			"count":559,
			"type":"VEC2"
		},
		{
			"bufferView":38,
			"componentType":5123,
			"count":2880,
			"type":"SCALAR"
		},
		{
			"bufferView":39,
			"componentType":5126,
			"count":559,
			"max":[
				0.9999997019767761,
				1,
				0.9999993443489075
			],
			"min":[
				-0.9999990463256836,
				-1,
				-1
			],
			"type":"VEC3"
		},
		{
			"bufferView":40,
			"componentType":5126,
			"count":559,
			"type":"VEC3"
		},
		{
			"bufferView":41,
			"componentType":5126,
			"count":559,
			"type":"VEC2"
		},
		{
			"bufferView":42,
			"componentType":5126,
			"count":292,
			"max":[
				4.4075703620910645,
				1.3288609981536865,
				1
			],
			"min":[
				-2.011168956756592,
				-1,
				-7.430883407592773
			],
			"type":"VEC3"
		},
		{
			"bufferView":43,
			"componentType":5126,
			"count":292,
			"type":"VEC3"
		},
		{
			"bufferView":44,
			"componentType":5126,
			"count":292,
			"type":"VEC2"
		},
		{
			"bufferView":45,
			"componentType":5123,
			"count":468,
			"type":"SCALAR"
		}
	],
	"bufferViews":[
		{
			"buffer":0,
			"byteLength":2940,
			"byteOffset":0,
			"target":34962
		},
		{
			"buffer":0,
			"byteLength":2940,
			"byteOffset":2940,
			"target":34962
		},
		{
			"buffer":0,
			"byteLength":1960,
			"byteOffset":5880,
			"target":34962
		},
		{
			"buffer":0,
			"byteLength":2304,
			"byteOffset":7840,
			"target":34963
		},
		{
			"buffer":0,
			"byteLength":3648,
			"byteOffset":10144,
			"target":34962
		},
		{
			"buffer":0,
			"byteLength":3648,
			"byteOffset":13792,
			"target":34962
		},
		{
			"buffer":0,
			"byteLength":3600,
			"byteOffset":17440,
			"target":34963
		},
		{
			"buffer":0,
			"byteLength":720,
			"byteOffset":21040,
			"target":34962
		},
		{
			"buffer":0,
			"byteLength":720,
			"byteOffset":21760,
			"target":34962
		},
		{
			"buffer":0,
			"byteLength":480,
			"byteOffset":22480,
			"target":34962
		},
		{
			"buffer":0,
			"byteLength":216,
			"byteOffset":22960,
			"target":34963
		},
		{
			"buffer":0,
			"byteLength":720,
			"byteOffset":23176,
			"target":34962
		},
		{
			"buffer":0,
			"byteLength":720,
			"byteOffset":23896,
			"target":34962
		},
		{
			"buffer":0,
			"byteLength":480,
			"byteOffset":24616,
			"target":34962
		},
		{
			"buffer":0,
			"byteLength":240,
			"byteOffset":25096,
			"target":34963
		},
		{
			"buffer":0,
			"byteLength":720,
			"byteOffset":25336,
			"target":34962
		},
		{
			"buffer":0,
			"byteLength":720,
			"byteOffset":26056,
			"target":34962
		},
		{
			"buffer":0,
			"byteLength":480,
			"byteOffset":26776,
			"target":34962
		},
		{
			"buffer":0,
			"byteLength":720,
			"byteOffset":27256,
			"target":34962
		},
		{
			"buffer":0,
			"byteLength":720,
			"byteOffset":27976,
			"target":34962
		},
		{
			"buffer":0,
			"byteLength":480,
			"byteOffset":28696,
			"target":34962
		},
		{
			"buffer":0,
			"byteLength":720,
			"byteOffset":29176,
			"target":34962
		},
		{
			"buffer":0,
			"byteLength":720,
			"byteOffset":29896,
			"target":34962
		},
		{
			"buffer":0,
			"byteLength":480,
			"byteOffset":30616,
			"target":34962
		},
		{
			"buffer":0,
			"byteLength":720,
			"byteOffset":31096,
			"target":34962
		},
		{
			"buffer":0,
			"byteLength":720,
			"byteOffset":31816,
			"target":34962
		},
		{
			"buffer":0,
			"byteLength":480,
			"byteOffset":32536,
			"target":34962
		},
		{
			"buffer":0,
			"byteLength":6708,
			"byteOffset":33016,
			"target":34962
		},
		{
			"buffer":0,
			"byteLength":6708,
			"byteOffset":39724,
			"target":34962
		},
		{
			"buffer":0,
			"byteLength":4472,
			"byteOffset":46432,
			"target":34962
		},
		{
			"buffer":0,
			"byteLength":5760,
			"byteOffset":50904,
			"target":34963
		},
		{
			"buffer":0,
			"byteLength":576,
			"byteOffset":56664,
			"target":34962
		},
		{
			"buffer":0,
			"byteLength":576,
			"byteOffset":57240,
			"target":34962
		},
		{
			"buffer":0,
			"byteLength":384,
			"byteOffset":57816,
			"target":34962
		},
		{
			"buffer":0,
			"byteLength":168,
			"byteOffset":58200,
			"target":34963
		},
		{
			"buffer":0,
			"byteLength":6708,
			"byteOffset":58368,
			"target":34962
		},
		{
			"buffer":0,
			"byteLength":6708,
			"byteOffset":65076,
			"target":34962
		},
		{
			"buffer":0,
			"byteLength":4472,
			"byteOffset":71784,
			"target":34962
		},
		{
			"buffer":0,
			"byteLength":5760,
			"byteOffset":76256,
			"target":34963
		},
		{
			"buffer":0,
			"byteLength":6708,
			"byteOffset":82016,
			"target":34962
		},
		{
			"buffer":0,
			"byteLength":6708,
			"byteOffset":88724,
			"target":34962
		},
		{
			"buffer":0,
			"byteLength":4472,
			"byteOffset":95432,
			"target":34962
		},
		{
			"buffer":0,
			"byteLength":3504,
			"byteOffset":99904,
			"target":34962
		},
		{
			"buffer":0,
			"byteLength":3504,
			"byteOffset":103408,
			"target":34962
		},
		{
			"buffer":0,
			"byteLength":2336,
			"byteOffset":106912,
			"target":34962
		},
		{
			"buffer":0,
			"byteLength":936,
			"byteOffset":109248,
			"target":34963
		}
	],
	"buffers":[
		{
			"byteLength":110184,
			"uri":"scena.bin"
		}
	]
}
