{
	"asset":{
		"generator":"Khronos glTF Blender I/O v3.6.27",
		"version":"2.0"
	},
	"scene":0,
	"scenes":[
		{
			"name":"Scene",
			"nodes":[
				0,
				1,
				2,
				3,
				4,
				5,
				6,
				7,
				10,
				13,
				16,
				19,
				22,
				23,
				24,
				25,
				29,
				33,
				37,
				40
			]
		}
	],
	"nodes":[
		{
			"camera":0,
			"name":"Camera",
			"rotation":[
				-0.2665669620037079,
				0.005839190911501646,
				0.0016149695729836822,
				0.963797390460968
			],
			"translation":[
				0.5247301459312439,
				16.141101837158203,
				27.99687957763672
			]
		},
		{
			"mesh":0,
			"name":"Circle",
			"translation":[
				-7.7953667640686035,
				0,
				0.016330815851688385
			]
		},
		{
			"mesh":1,
			"name":"Circle.001",
			"translation":[
				-8.659660339355469,
				0,
				1.5479838848114014
			]
		},
		{
			"mesh":2,
			"name":"Circle.002",
			"translation":[
				-7.7953667640686035,
				0,
				3.0636472702026367
			]
		},
		{
			"mesh":3,
			"name":"Circle.003",
			"translation":[
				-6.933099746704102,
				0,
				4.583712577819824
			]
		},
		{
			"mesh":4,
			"name":"Circle.004",
			"translation":[
				-6.904880046844482,
				0,
				-1.5151509046554565
			]
		},
		{
			"mesh":5,
			"name":"Sphere",
			"scale":[
				0.2804635763168335,
				1.0273131132125854,
				0.2804635763168335
			],
			"translation":[
				0,
				1.4525505304336548,
				0
			]
		},
		{
			"mesh":6,
			"name":"Cylinder",
			"scale":[
				0.06604783982038498,
				0.26124751567840576,
				0.06604783982038498
			],
			"translation":[
				0,
				0.33974483609199524,
				0
			]
		},
		{
			"mesh":5,
			"name":"Sphere",
			"scale":[
				0.2804635763168335,
				1.0273131132125854,
				0.2804635763168335
			],
			"translation":[
				0,
				1.4525505304336548,
				0
			]
		},
		{
			"mesh":6,
			"name":"Cylinder",
			"scale":[
				0.06604783982038498,
				0.26124751567840576,
				0.06604783982038498
			],
			"translation":[
				0,
				0.33974483609199524,
				0
			]
		},
		{
			"children":[
				8,
				9
			],
			"name":"Tree1",
			"translation":[
				0.3471933603286743,
				0,
				0.7066408395767212
			]
		},
		{
			"mesh":5,
			"name":"Sphere",
			"scale":[
				0.2804635763168335,
				1.0273131132125854,
				0.2804635763168335
			],
			"translation":[
				0,
				1.4525505304336548,
				0
			]
		},
		{
			"mesh":6,
			"name":"Cylinder",
			"scale":[
				0.06604783982038498,
				0.26124751567840576,
				0.06604783982038498
			],
			"translation":[
				0,
				0.33974483609199524,
				0
			]
		},
		{
			"children":[
				11,
				12
			],
			"name":"Tree1.001",
			"translation":[
				-4.260293960571289,
				0,
				1.155304193496704
			]
		},
		{
			"mesh":5,
			"name":"Sphere",
			"scale":[
				0.2804635763168335,
				1.0273131132125854,
				0.2804635763168335
			],
			"translation":[
				0,
				1.4525505304336548,
				0
			]
		},
		{
			"mesh":6,
			"name":"Cylinder",
			"scale":[
				0.06604783982038498,
				0.26124751567840576,
				0.06604783982038498
			],
			"translation":[
				0,
				0.33974483609199524,
				0
			]
		},
		{
			"children":[
				14,
				15
			],
			"name":"Tree1.002",
			"translation":[
				-3.0345962047576904,
				0,
				2.354037284851074
			]
		},
		{
			"mesh":5,
			"name":"Sphere",
			"scale":[
				0.2804635763168335,
				1.0273131132125854,
				0.2804635763168335
			],
			"translation":[
				0,
				1.4525505304336548,
				0
			]
		},
		{
			"mesh":6,
			"name":"Cylinder",
			"scale":[
				0.06604783982038498,
				0.26124751567840576,
				0.06604783982038498
			],
			"translation":[
				0,
				0.33974483609199524,
				0
			]
		},
		{
			"children":[
				17,
				18
			],
			"name":"Tree1.003",
			"translation":[
				2.1165497303009033,
				0,
				2.4041037559509277
			]
		},
		{
			"mesh":5,
			"name":"Sphere",
			"scale":[
				0.2804635763168335,
				1.0273131132125854,
				0.2804635763168335
			],
			"translation":[
				0,
				1.4525505304336548,
				0
			]
		},
		{
			"mesh":6,
			"name":"Cylinder",
			"scale":[
				0.06604783982038498,
				0.26124751567840576,
				0.06604783982038498
			],
			"translation":[
				0,
				0.33974483609199524,
				0
			]
		},
		{
			"children":[
				20,
				21
			],
			"name":"Tree1.004",
			"translation":[
				1.686697006225586,
				0,
				3.3124489784240723
			]
		},
		{
			"mesh":7,
			"name":"Sphere.001",
			"scale":[
				0.5758743286132812,
				0.45765089988708496,
				0.45765089988708496
			],
			"translation":[
				5.417259693145752,
				0.9193258881568909,
				-0.025640133768320084
			]
		},
		{
			"mesh":8,
			"name":"Sphere.002",
			"scale":[
				0.3865238130092621,
				0.30717286467552185,
				0.30717286467552185
			],
			"translation":[
				4.6183271408081055,
				0.8077391386032104,
				-0.025640133768320084
			]
		},
		{
			"mesh":9,
			"name":"Cylinder.001",
			"rotation":[
				0,
				0.3390064239501953,
				0,
				0.9407841563224792
			],
			"scale":[
				0.06604784727096558,
				0.26124751567840576,
				0.06604784727096558
			],
			"translation":[
				5.1226911544799805,
				0.33974483609199524,
				0.20451901853084564
			]
		},
		{
			"mesh":7,
			"name":"Sphere.001",
			"scale":[
				0.5758743286132812,
				0.45765089988708496,
				0.45765089988708496
			],
			"translation":[
				5.417259693145752,
				0.9193258881568909,
				-0.025640249252319336
			]
		},
		{
			"mesh":8,
			"name":"Sphere.002",
			"scale":[
				0.3865238130092621,
				0.30717286467552185,
				0.30717286467552185
			],
			"translation":[
				4.6183271408081055,
				0.8077391386032104,
				-0.025640249252319336
			]
		},
		{
			"mesh":9,
			"name":"Cylinder.001",
			"rotation":[
				0,
				0.3390064239501953,
				0,
				0.9407841563224792
			],
			"scale":[
				0.06604784727096558,
				0.26124751567840576,
				0.06604784727096558
			],
			"translation":[
				5.1226911544799805,
				0.33974483609199524,
				0.20451903343200684
			]
		},
		{
			"children":[
				26,
				27,
				28
			],
			"name":"Tree2",
			"translation":[
				0.13438279926776886,
				0,
				3.1903083324432373
			]
		},
		{
			"mesh":7,
			"name":"Sphere.001",
			"scale":[
				0.5758743286132812,
				0.45765089988708496,
				0.45765089988708496
			],
			"translation":[
				5.417259693145752,
				0.9193258881568909,
				-0.025640249252319336
			]
		},
		{
			"mesh":8,
			"name":"Sphere.002",
			"scale":[
				0.3865238130092621,
				0.30717286467552185,
				0.30717286467552185
			],
			"translation":[
				4.6183271408081055,
				0.8077391386032104,
				-0.025640249252319336
			]
		},
		{
			"mesh":9,
			"name":"Cylinder.001",
			"rotation":[
				0,
				0.3390064239501953,
				0,
				0.9407841563224792
			],
			"scale":[
				0.06604784727096558,
				0.26124751567840576,
				0.06604784727096558
			],
			"translation":[
				5.1226911544799805,
				0.33974483609199524,
				0.20451903343200684
			]
		},
		{
			"children":[
				30,
				31,
				32
			],
			"name":"Tree2.001",
			"translation":[
				-5.556190490722656,
				0,
				3.878469228744507
			]
		},
		{
			"mesh":7,
			"name":"Sphere.001",
			"scale":[
				0.5758743286132812,
				0.45765089988708496,
				0.45765089988708496
			],
			"translation":[
				5.417259693145752,
				0.9193258881568909,
				-0.025640133768320084
			]
		},
		{
			"mesh":8,
			"name":"Sphere.002",
			"scale":[
				0.3865238130092621,
				0.30717286467552185,
				0.30717286467552185
			],
			"translation":[
				4.6183271408081055,
				0.8077391386032104,
				-0.025640133768320084
			]
		},
		{
			"mesh":9,
			"name":"Cylinder.001",
			"rotation":[
				0,
				0.3390064239501953,
				0,
				0.9407841563224792
			],
			"scale":[
				0.06604784727096558,
				0.26124751567840576,
				0.06604784727096558
			],
			"translation":[
				5.1226911544799805,
				0.33974483609199524,
				0.20451901853084564
			]
		},
		{
			"children":[
				34,
				35,
				36
			],
			"name":"Tree2.002"
		},
		{
			"mesh":5,
			"name":"Sphere",
			"scale":[
				0.2804635763168335,
				1.0273131132125854,
				0.2804635763168335
			],
			"translation":[
				0,
				1.4525505304336548,
				0
			]
		},
		{
			"mesh":6,
			"name":"Cylinder",
			"scale":[
				0.06604783982038498,
				0.26124751567840576,
				0.06604783982038498
			],
			"translation":[
				0,
				0.33974483609199524,
				0
			]
		},
		{
			"children":[
				38,
				39
			],
			"name":"Tree1.005"
		}
	],
	"cameras":[
		{
			"name":"Camera",
			"perspective":{
				"aspectRatio":1.7777777777777777,
				"yfov":0.39959652046304894,
				"zfar":100,
				"znear":0.10000000149011612
			},
			"type":"perspective"
		}
	],
	"materials":[
		{
			"doubleSided":true,
			"name":"Material.001",
			"pbrMetallicRoughness":{
				"baseColorTexture":{
					"index":0
				},
				"metallicFactor":0,
				"roughnessFactor":0.5
			}
		},
		{
			"doubleSided":true,
			"name":"Material.002",
			"pbrMetallicRoughness":{
				"baseColorTexture":{
					"index":1
				},
				"metallicFactor":0,
				"roughnessFactor":0.5
			}
		},
		{
			"doubleSided":true,
			"name":"Material.003",
			"pbrMetallicRoughness":{
				"baseColorTexture":{
					"index":2
				},
				"metallicFactor":0,
				"roughnessFactor":0.5
			}
		}
	],
	"meshes":[
		{
			"name":"Circle",
			"primitives":[
				{
					"attributes":{
						"POSITION":0,
						"NORMAL":1,
						"TEXCOORD_0":2
					},
					"indices":3,
					"material":0
				}
			]
		},
		{
			"name":"Circle.001",
			"primitives":[
				{
					"attributes":{
						"POSITION":4,
						"NORMAL":5,
						"TEXCOORD_0":6
					},
					"indices":7,
					"material":0
				}
			]
		},
		{
			"name":"Circle.002",
			"primitives":[
				{
					"attributes":{
						"POSITION":8,
						"NORMAL":9,
						"TEXCOORD_0":10
					},
					"indices":3,
					"material":0
				}
			]
		},
		{
			"name":"Circle.003",
			"primitives":[
				{
					"attributes":{
						"POSITION":11,
						"NORMAL":12,
						"TEXCOORD_0":13
					},
					"indices":14,
					"material":0
				}
			]
		},
		{
			"name":"Circle.004",
			"primitives":[
				{
					"attributes":{
						"POSITION":15,
						"NORMAL":16,
						"TEXCOORD_0":17
					},
					"indices":14,
					"material":0
				}
			]
		},
		{
			"name":"Sphere",
			"primitives":[
				{
					"attributes":{
						"POSITION":18,
						"NORMAL":19,
						"TEXCOORD_0":20
					},
					"indices":21,
					"material":1
				}
			]
		},
		{
			"name":"Cylinder",
			"primitives":[
				{
					"attributes":{
						"POSITION":22,
						"NORMAL":23,
						"TEXCOORD_0":24
					},
					"indices":25,
					"material":2
				}
			]
		},
		{
			"name":"Sphere.001",
			"primitives":[
				{
					"attributes":{
						"POSITION":26,
						"NORMAL":27,
						"TEXCOORD_0":28
					},
					"indices":29,
					"material":1
				}
			]
		},
		{
			"name":"Sphere.002",
			"primitives":[
				{
					"attributes":{
						"POSITION":30,
						"NORMAL":31,
						"TEXCOORD_0":32
					},
					"indices":29,
					"material":1
				}
			]
		},
		{
			"name":"Cylinder.001",
			"primitives":[
				{
					"attributes":{
						"POSITION":33,
						"NORMAL":34,
						"TEXCOORD_0":35
					},
					"indices":36,
					"material":2
				}
			]
		}
	],
	"textures":[
		{
			"sampler":0,
			"source":0
		},
		{
			"sampler":0,
			"source":1
		},
		{
			"sampler":0,
			"source":2
		}
	],
	"images":[
		{
			"mimeType":"image/png",
			"name":"travaTexture",
			"uri":"travaTexture.png"
		},
		{
			"mimeType":"image/png",
			"name":"drevoTexture",
			"uri":"drevoTexture.png"
		},
		{
			"mimeType":"image/png",
			"name":"debloTexture",
			"uri":"debloTexture.png"
		}
	],
	"accessors":[
		{
			"bufferView":0,
			"componentType":5126,
			"count":600,
			"max":[
				16.454483032226562,
				0.08308777958154678,
				1
			],
			"min":[
				-0.8660253882408142,
				0,
				-1
			],
			"type":"VEC3"
		},
		{
			"bufferView":1,
			"componentType":5126,
			"count":600,
			"type":"VEC3"
		},
		{
			"bufferView":2,
			"componentType":5126,
			"count":600,
			"type":"VEC2"
		},
		{
			"bufferView":3,
			"componentType":5123,
			"count":1200,
			"type":"SCALAR"
		},
		{
			"bufferView":4,
			"componentType":5126,
			"count":660,
			"max":[
				18.186532974243164,
				0.08308777958154678,
				1
			],
			"min":[
				-0.8660253882408142,
				0,
				-1
			],
			"type":"VEC3"
		},
		{
			"bufferView":5,
			"componentType":5126,
			"count":660,
			"type":"VEC3"
		},
		{
			"bufferView":6,
			"componentType":5126,
			"count":660,
			"type":"VEC2"
		},
		{
			"bufferView":7,
			"componentType":5123,
			"count":1320,
			"type":"SCALAR"
		},
		{
			"bufferView":8,
			"componentType":5126,
			"count":600,
			"max":[
				16.454483032226562,
				0.08308777958154678,
				1
			],
			"min":[
				-0.8660253882408142,
				0,
				-1
			],
			"type":"VEC3"
		},
		{
			"bufferView":9,
			"componentType":5126,
			"count":600,
			"type":"VEC3"
		},
		{
			"bufferView":10,
			"componentType":5126,
			"count":600,
			"type":"VEC2"
		},
		{
			"bufferView":11,
			"componentType":5126,
			"count":540,
			"max":[
				14.722431182861328,
				0.08308777958154678,
				1
			],
			"min":[
				-0.8660253882408142,
				0,
				-1
			],
			"type":"VEC3"
		},
		{
			"bufferView":12,
			"componentType":5126,
			"count":540,
			"type":"VEC3"
		},
		{
			"bufferView":13,
			"componentType":5126,
			"count":540,
			"type":"VEC2"
		},
		{
			"bufferView":14,
			"componentType":5123,
			"count":1080,
			"type":"SCALAR"
		},
		{
			"bufferView":15,
			"componentType":5126,
			"count":540,
			"max":[
				14.722431182861328,
				0.08308777958154678,
				1
			],
			"min":[
				-0.8660253882408142,
				0,
				-1
			],
			"type":"VEC3"
		},
		{
			"bufferView":16,
			"componentType":5126,
			"count":540,
			"type":"VEC3"
		},
		{
			"bufferView":17,
			"componentType":5126,
			"count":540,
			"type":"VEC2"
		},
		{
			"bufferView":18,
			"componentType":5126,
			"count":559,
			"max":[
				0.9999997019767761,
				1,
				0.9999993443489075
			],
			"min":[
				-0.9999990463256836,
				-1,
				-1
			],
			"type":"VEC3"
		},
		{
			"bufferView":19,
			"componentType":5126,
			"count":559,
			"type":"VEC3"
		},
		{
			"bufferView":20,
			"componentType":5126,
			"count":559,
			"type":"VEC2"
		},
		{
			"bufferView":21,
			"componentType":5123,
			"count":2880,
			"type":"SCALAR"
		},
		{
			"bufferView":22,
			"componentType":5126,
			"count":48,
			"max":[
				1,
				1,
				1
			],
			"min":[
				-1,
				-1,
				-1
			],
			"type":"VEC3"
		},
		{
			"bufferView":23,
			"componentType":5126,
			"count":48,
			"type":"VEC3"
		},
		{
			"bufferView":24,
			"componentType":5126,
			"count":48,
			"type":"VEC2"
		},
		{
			"bufferView":25,
			"componentType":5123,
			"count":84,
			"type":"SCALAR"
		},
		{
			"bufferView":26,
			"componentType":5126,
			"count":559,
			"max":[
				0.9999997019767761,
				1,
				0.9999993443489075
			],
			"min":[
				-0.9999990463256836,
				-1,
				-1
			],
			"type":"VEC3"
		},
		{
			"bufferView":27,
			"componentType":5126,
			"count":559,
			"type":"VEC3"
		},
		{
			"bufferView":28,
			"componentType":5126,
			"count":559,
			"type":"VEC2"
		},
		{
			"bufferView":29,
			"componentType":5123,
			"count":2880,
			"type":"SCALAR"
		},
		{
			"bufferView":30,
			"componentType":5126,
			"count":559,
			"max":[
				0.9999997019767761,
				1,
				0.9999993443489075
			],
			"min":[
				-0.9999990463256836,
				-1,
				-1
			],
			"type":"VEC3"
		},
		{
			"bufferView":31,
			"componentType":5126,
			"count":559,
			"type":"VEC3"
		},
		{
			"bufferView":32,
			"componentType":5126,
			"count":559,
			"type":"VEC2"
		},
		{
			"bufferView":33,
			"componentType":5126,
			"count":292,
			"max":[
				4.4075703620910645,
				1.3288609981536865,
				1
			],
			"min":[
				-2.011168956756592,
				-1,
				-7.430883407592773
			],
			"type":"VEC3"
		},
		{
			"bufferView":34,
			"componentType":5126,
			"count":292,
			"type":"VEC3"
		},
		{
			"bufferView":35,
			"componentType":5126,
			"count":292,
			"type":"VEC2"
		},
		{
			"bufferView":36,
			"componentType":5123,
			"count":468,
			"type":"SCALAR"
		}
	],
	"bufferViews":[
		{
			"buffer":0,
			"byteLength":7200,
			"byteOffset":0,
			"target":34962
		},
		{
			"buffer":0,
			"byteLength":7200,
			"byteOffset":7200,
			"target":34962
		},
		{
			"buffer":0,
			"byteLength":4800,
			"byteOffset":14400,
			"target":34962
		},
		{
			"buffer":0,
			"byteLength":2400,
			"byteOffset":19200,
			"target":34963
		},
		{
			"buffer":0,
			"byteLength":7920,
			"byteOffset":21600,
			"target":34962
		},
		{
			"buffer":0,
			"byteLength":7920,
			"byteOffset":29520,
			"target":34962
		},
		{
			"buffer":0,
			"byteLength":5280,
			"byteOffset":37440,
			"target":34962
		},
		{
			"buffer":0,
			"byteLength":2640,
			"byteOffset":42720,
			"target":34963
		},
		{
			"buffer":0,
			"byteLength":7200,
			"byteOffset":45360,
			"target":34962
		},
		{
			"buffer":0,
			"byteLength":7200,
			"byteOffset":52560,
			"target":34962
		},
		{
			"buffer":0,
			"byteLength":4800,
			"byteOffset":59760,
			"target":34962
		},
		{
			"buffer":0,
			"byteLength":6480,
			"byteOffset":64560,
			"target":34962
		},
		{
			"buffer":0,
			"byteLength":6480,
			"byteOffset":71040,
			"target":34962
		},
		{
			"buffer":0,
			"byteLength":4320,
			"byteOffset":77520,
			"target":34962
		},
		{
			"buffer":0,
			"byteLength":2160,
			"byteOffset":81840,
			"target":34963
		},
		{
			"buffer":0,
			"byteLength":6480,
			"byteOffset":84000,
			"target":34962
		},
		{
			"buffer":0,
			"byteLength":6480,
			"byteOffset":90480,
			"target":34962
		},
		{
			"buffer":0,
			"byteLength":4320,
			"byteOffset":96960,
			"target":34962
		},
		{
			"buffer":0,
			"byteLength":6708,
			"byteOffset":101280,
			"target":34962
		},
		{
			"buffer":0,
			"byteLength":6708,
			"byteOffset":107988,
			"target":34962
		},
		{
			"buffer":0,
			"byteLength":4472,
			"byteOffset":114696,
			"target":34962
		},
		{
			"buffer":0,
			"byteLength":5760,
			"byteOffset":119168,
			"target":34963
		},
		{
			"buffer":0,
			"byteLength":576,
			"byteOffset":124928,
			"target":34962
		},
		{
			"buffer":0,
			"byteLength":576,
			"byteOffset":125504,
			"target":34962
		},
		{
			"buffer":0,
			"byteLength":384,
			"byteOffset":126080,
			"target":34962
		},
		{
			"buffer":0,
			"byteLength":168,
			"byteOffset":126464,
			"target":34963
		},
		{
			"buffer":0,
			"byteLength":6708,
			"byteOffset":126632,
			"target":34962
		},
		{
			"buffer":0,
			"byteLength":6708,
			"byteOffset":133340,
			"target":34962
		},
		{
			"buffer":0,
			"byteLength":4472,
			"byteOffset":140048,
			"target":34962
		},
		{
			"buffer":0,
			"byteLength":5760,
			"byteOffset":144520,
			"target":34963
		},
		{
			"buffer":0,
			"byteLength":6708,
			"byteOffset":150280,
			"target":34962
		},
		{
			"buffer":0,
			"byteLength":6708,
			"byteOffset":156988,
			"target":34962
		},
		{
			"buffer":0,
			"byteLength":4472,
			"byteOffset":163696,
			"target":34962
		},
		{
			"buffer":0,
			"byteLength":3504,
			"byteOffset":168168,
			"target":34962
		},
		{
			"buffer":0,
			"byteLength":3504,
			"byteOffset":171672,
			"target":34962
		},
		{
			"buffer":0,
			"byteLength":2336,
			"byteOffset":175176,
			"target":34962
		},
		{
			"buffer":0,
			"byteLength":936,
			"byteOffset":177512,
			"target":34963
		}
	],
	"samplers":[
		{
			"magFilter":9729,
			"minFilter":9987
		}
	],
	"buffers":[
		{
			"byteLength":178448,
			"uri":"scena.bin"
		}
	]
}
